HIERARCHY
ROOT Hips
{
	OFFSET 0.000000 0.000000 0.000000
	CHANNELS 6 Xposition Yposition Zposition Zrotation Yrotation Xrotation 
	JOINT LHipJoint
	{
		OFFSET 0.000000 0.000000 0.000000
		CHANNELS 3 Zrotation Yrotation Xrotation
		JOINT LeftUpLeg
		{
			OFFSET 1.363060 -1.794630 0.839290
			CHANNELS 3 Zrotation Yrotation Xrotation
			JOINT LeftLeg
			{
				OFFSET 2.448110 -6.726130 0.000000
				CHANNELS 3 Zrotation Yrotation Xrotation
				JOINT LeftFoot
				{
					OFFSET 2.562200 -7.039590 0.000000
					CHANNELS 3 Zrotation Yrotation Xrotation
					JOINT LeftToeBase
					{
						OFFSET 0.157640 -0.433110 2.322550
						CHANNELS 3 Zrotation Yrotation Xrotation
						End Site
						{
							OFFSET 0.000000 0.000000 0.000000
						}
					}
				}
			}
		}
	}
	JOINT RHipJoint
	{
		OFFSET 0.000000 0.000000 0.000000
		CHANNELS 3 Zrotation Yrotation Xrotation
		JOINT RightUpLeg
		{
			OFFSET -1.305520 -1.794630 0.839290
			CHANNELS 3 Zrotation Yrotation Xrotation
			JOINT RightLeg
			{
				OFFSET -2.542530 -6.985550 0.000000
				CHANNELS 3 Zrotation Yrotation Xrotation
				JOINT RightFoot
				{
					OFFSET -2.568260 -7.056230 0.000000
					CHANNELS 3 Zrotation Yrotation Xrotation
					JOINT RightToeBase
					{
						OFFSET -0.164730 -0.452590 2.363150
						CHANNELS 3 Zrotation Yrotation Xrotation
						End Site
						{
							OFFSET 0.000000 0.000000 0.000000
						}
					}
				}
			}
		}
	}
	JOINT LowerBack
	{
		OFFSET 0.000000 0.000000 0.000000
		CHANNELS 3 Zrotation Yrotation Xrotation
		JOINT Spine
		{
			OFFSET 0.028270 2.035590 -0.193380
			CHANNELS 3 Zrotation Yrotation Xrotation
			JOINT Spine1
			{
				OFFSET 0.056720 2.048850 -0.042750
				CHANNELS 3 Zrotation Yrotation Xrotation
				JOINT Neck
				{
					OFFSET 0.000000 0.000000 0.000000
					CHANNELS 3 Zrotation Yrotation Xrotation
					JOINT Neck1
					{
						OFFSET -0.054170 1.746240 0.172020
						CHANNELS 3 Zrotation Yrotation Xrotation
						JOINT Head
						{
							OFFSET 0.104070 1.761360 -0.123970
							CHANNELS 3 Zrotation Yrotation Xrotation
							End Site
							{
								OFFSET 0.000000 0.000000 0.000000
							}
						}
					}
				}
				JOINT LeftShoulder
				{
					OFFSET 0.000000 0.000000 0.000000
					CHANNELS 3 Zrotation Yrotation Xrotation
					JOINT LeftArm
					{
						OFFSET 3.362410 1.200890 -0.311210
						CHANNELS 3 Zrotation Yrotation Xrotation
						JOINT LeftForeArm
						{
							OFFSET 4.983000 -0.000000 -0.000000
							CHANNELS 3 Zrotation Yrotation Xrotation
							JOINT LeftHand
							{
								OFFSET 3.483560 -0.000000 -0.000000
								CHANNELS 3 Zrotation Yrotation Xrotation
								JOINT LeftFingerBase
								{
									OFFSET 0.000000 0.000000 0.000000
									CHANNELS 3 Zrotation Yrotation Xrotation
									JOINT LeftHandIndex1
									{
										OFFSET 0.715260 -0.000000 -0.000000
										CHANNELS 3 Zrotation Yrotation Xrotation
										End Site
										{
											OFFSET 0.000000 0.000000 0.000000
										}
									}
								}
								JOINT LThumb
								{
									OFFSET 0.000000 0.000000 0.000000
									CHANNELS 3 Zrotation Yrotation Xrotation
									End Site
									{
										OFFSET 0.000000 0.000000 0.000000
									}
								}
							}
						}
					}
				}
				JOINT RightShoulder
				{
					OFFSET 0.000000 0.000000 0.000000
					CHANNELS 3 Zrotation Yrotation Xrotation
					JOINT RightArm
					{
						OFFSET -3.136600 1.374050 -0.404650
						CHANNELS 3 Zrotation Yrotation Xrotation
						JOINT RightForeArm
						{
							OFFSET -5.241900 -0.000000 -0.000000
							CHANNELS 3 Zrotation Yrotation Xrotation
							JOINT RightHand
							{
								OFFSET -3.444170 -0.000000 -0.000000
								CHANNELS 3 Zrotation Yrotation Xrotation
								JOINT RightFingerBase
								{
									OFFSET 0.000000 0.000000 0.000000
									CHANNELS 3 Zrotation Yrotation Xrotation
									JOINT RightHandIndex1
									{
										OFFSET -0.622530 -0.000000 -0.000000
										CHANNELS 3 Zrotation Yrotation Xrotation
										End Site
										{
											OFFSET 0.000000 0.000000 0.000000
										}
									}
								}
								JOINT RThumb
								{
									OFFSET 0.000000 0.000000 0.000000
									CHANNELS 3 Zrotation Yrotation Xrotation
									End Site
									{
										OFFSET 0.000000 0.000000 0.000000
									}
								}
							}
						}
					}
				}
			}
		}
	}
}
MOTION
Frames: 10
Frame Time: 0.008333
-1.401121 17.757580 10.289520 -2.919128 7.113143 7.027186 1.846794 0.928658 0.317766 -13.969035 -7.693779 -7.276753 0.620079 6.598846 18.866996 0.488710 -1.146682 -8.372089 0.000700 -0.171300 -0.470600 -4.712213 -1.162666 -1.634813 32.305352 0.783360 -3.199001 -0.625203 -4.356772 12.713021 0.920896 -12.664898 -15.009283 -0.707000 -5.373900 14.978100 7.011638 -1.807413 0.151266 1.741382 -2.599370 -1.905527 1.408846 -1.574069 0.657888 -3.962873 -1.404863 -13.132638 -2.055078 -0.731889 13.919517 -1.512800 -0.954800 8.606800 1.253049 4.515163 -0.662660 -88.058990 7.906988 38.597015 21.247272 -32.835582 -5.940030 0.469202 0.285068 3.999024 -1.491493 44.600004 -1.356100 -7.125000 0.000000 0.000000 -53.779800 66.618700 -31.659900 -0.374384 -5.170194 -1.614684 83.988608 -2.464871 -13.737839 -7.137620 13.145605 -0.547573 0.848617 0.034287 2.100537 -8.492418 17.050648 -2.744500 7.125000 0.000000 0.000000 12.264200 -13.101300 9.387400 
-1.388275 17.760614 10.341106 -2.570199 7.500885 7.145546 1.838617 0.931212 0.329237 -14.395813 -7.952416 -6.954759 0.591679 6.522319 18.647018 0.494816 -1.185745 -8.408873 0.001300 -0.232900 -0.639800 -4.685155 -1.172249 -1.666246 31.831314 -0.181087 -3.387280 -0.642797 -4.372090 12.774612 0.830195 -12.098460 -15.047602 -0.673000 -5.245900 14.611100 6.943520 -1.903574 -0.159910 1.709681 -2.757071 -1.908275 1.301254 -1.652489 0.844704 -3.903741 -1.424830 -13.502378 -2.145777 -0.713766 14.227505 -1.561200 -0.959400 8.808300 1.242202 4.537338 -0.672038 -88.058180 8.171104 38.897941 21.573376 -33.223146 -6.117537 0.465880 0.287328 4.186618 -2.103949 45.071234 -1.795600 -7.125000 0.000000 0.000000 -55.165000 66.706300 -32.779900 -0.394682 -5.185978 -1.634763 83.854937 -3.286971 -12.210888 -7.256831 13.356914 -0.588054 0.839347 0.074820 0.354318 -8.472151 16.675464 -2.675200 7.125000 0.000000 0.000000 12.290000 -13.486800 9.305900 
-1.375429 17.760716 10.370844 -2.496234 7.767207 7.191293 1.832254 0.940418 0.354765 -14.494844 -7.973790 -6.924137 0.599208 6.526221 18.666488 0.522174 -1.395140 -8.405433 0.001100 -0.218200 -0.599500 -4.671238 -1.180989 -1.676613 31.675705 -0.969990 -3.464450 -0.635674 -4.301465 12.589707 0.776301 -11.678560 -14.889046 -0.640500 -5.119900 14.250900 7.174508 -1.984010 -0.061741 1.706825 -2.836765 -2.056635 1.148047 -1.693606 0.385432 -3.825388 -1.386903 -13.181698 -2.287150 -0.673510 14.454656 -1.621500 -0.945400 8.845000 1.253619 4.519644 -0.683055 -88.067797 8.504745 39.178457 21.390791 -32.985714 -6.022879 0.468024 0.281336 4.410279 -1.574103 44.597571 -1.411500 -7.125000 0.000000 0.000000 -53.844900 66.592900 -31.678100 -0.405986 -5.174936 -1.662077 83.810246 -4.579489 -12.088134 -7.334464 13.495964 -0.610704 0.834338 0.091290 0.417308 -8.751207 16.448010 -2.715600 7.125000 0.000000 0.000000 12.113700 -13.709500 9.107700 
-1.376441 17.758996 10.386118 -2.559931 7.922558 7.207400 1.826517 0.944877 0.368371 -14.384770 -8.156199 -6.890170 0.605421 6.545181 18.724112 0.520154 -1.371081 -8.423122 0.000400 -0.132000 -0.362600 -4.676325 -1.182321 -1.680179 31.775786 -1.207687 -3.349548 -0.609742 -4.196208 12.297437 0.783586 -11.697993 -14.840317 -0.632600 -5.089000 14.162600 7.327025 -2.023466 0.159764 1.749784 -2.859073 -2.135409 1.188218 -1.707952 0.063632 -3.791060 -1.352937 -13.144299 -2.420734 -0.608243 14.644868 -1.676100 -0.928200 8.931000 1.268510 4.499957 -0.691964 -88.084840 8.687582 39.562909 21.454596 -33.043709 -6.055819 0.461959 0.286168 3.885240 -1.504180 44.824735 -1.365900 -7.125000 0.000000 0.000000 -54.201400 66.751500 -32.119800 -0.403252 -5.162367 -1.686747 83.608260 -5.313864 -11.620480 -7.305875 13.396221 -0.604216 0.825716 0.112534 0.084932 -8.971248 16.110494 -2.718100 7.125000 0.000000 0.000000 11.980200 -14.044200 8.915700 
-1.399806 17.749893 10.411000 -3.001659 7.885802 7.127760 1.822106 0.942590 0.362348 -13.761072 -7.968363 -6.961864 0.630523 6.586837 18.861212 0.548732 -1.562299 -8.453901 0.000000 0.008100 0.022200 -4.704372 -1.171652 -1.666247 32.445274 -0.387454 -2.804348 -0.561927 -4.101867 12.019883 0.883558 -12.484589 -15.260188 -0.675000 -5.253400 14.632700 7.553836 -2.047205 0.158680 1.832827 -2.902349 -2.107430 1.283640 -1.731154 0.137798 -3.559768 -1.241319 -13.156937 -2.542421 -0.488750 14.725350 -1.763500 -0.866700 8.962600 1.287754 4.501321 -0.688840 -88.072541 8.700513 39.354186 21.575967 -33.196337 -6.123354 0.461681 0.286303 3.937608 -1.478255 44.881960 -1.348600 -7.125000 0.000000 0.000000 -54.284200 66.793500 -32.228700 -0.372173 -5.180267 -1.681496 83.589961 -5.446473 -13.148351 -7.058433 12.929466 -0.553476 0.805337 0.082174 1.695263 -8.598152 15.679440 -2.539600 7.125000 0.000000 0.000000 12.253200 -14.486200 9.010700 
-1.403751 17.748476 10.408876 -3.323256 8.034972 7.189322 1.818466 0.936951 0.356223 -13.319409 -8.159117 -7.168420 0.654258 6.652200 19.043754 0.562416 -1.636956 -8.494616 0.000300 0.119400 0.328100 -4.727028 -1.173623 -1.664462 32.878388 -0.272994 -2.707739 -0.524622 -3.985203 11.677533 0.931913 -12.776071 -15.254123 -0.690200 -5.311300 14.798700 7.946389 -2.077445 0.244973 1.905937 -2.942735 -2.070553 1.267995 -1.751530 0.196153 -3.522442 -1.222453 -13.408798 -2.622349 -0.443722 14.745340 -1.798800 -0.858200 9.031200 1.288934 4.502593 -0.688408 -88.303871 8.579387 38.895927 21.773440 -33.430175 -6.232697 0.463647 0.280354 4.234366 -1.404841 44.897606 -1.298000 -7.125000 0.000000 0.000000 -54.258100 66.827700 -32.248400 -0.356190 -5.190826 -1.683505 83.584614 -5.589253 -14.018807 -6.963454 12.747599 -0.530188 0.801365 0.088987 2.490937 -8.900314 15.380758 -2.569000 7.125000 0.000000 0.000000 12.063100 -14.779500 8.786900 
-1.396468 17.749994 10.436794 -3.112841 8.465913 7.293045 1.812931 0.931330 0.362232 -13.511397 -8.258821 -7.248701 0.675191 6.688610 19.146328 0.628769 -2.106001 -8.574926 0.000600 0.161000 0.442400 -4.712189 -1.178547 -1.688991 32.620634 -0.972865 -2.807345 -0.518055 -3.926276 11.519439 0.894559 -12.532314 -15.234718 -0.676900 -5.260900 14.654300 7.962057 -2.237955 -0.043437 1.884304 -3.190051 -2.062288 1.131804 -1.872242 0.361521 -3.468307 -1.194229 -13.293563 -2.625766 -0.426374 14.732885 -1.804000 -0.842200 8.988900 1.283096 4.519780 -0.685521 -88.160593 8.613902 39.205354 21.899934 -33.577147 -6.295563 0.460025 0.287886 3.856695 -1.815295 45.462393 -1.600500 -7.125000 0.000000 0.000000 -55.663700 67.027100 -33.523200 -0.373460 -5.207311 -1.681868 83.518568 -6.140036 -14.337347 -6.827135 12.502107 -0.478279 0.834543 0.046029 2.961514 -8.748920 16.332745 -2.696900 7.125000 0.000000 0.000000 12.119100 -13.815100 9.084300 
-1.391107 17.747870 10.464812 -3.268411 8.767424 7.359043 1.804279 0.929715 0.361757 -13.300983 -8.266702 -7.285963 0.682518 6.684658 19.136514 0.678698 -2.461968 -8.621873 0.000400 0.130900 0.359700 -4.712492 -1.191268 -1.701003 32.772407 -1.511054 -2.977121 -0.519529 -3.933480 11.533578 0.850895 -12.239657 -15.223658 -0.657600 -5.186800 14.442000 8.289336 -2.323538 -0.295185 1.919931 -3.345887 -2.017525 1.004506 -1.946191 0.601268 -3.435922 -1.184966 -13.350439 -2.587935 -0.424396 14.697188 -1.790900 -0.835200 8.974700 1.278716 4.541488 -0.678254 -88.193488 8.213509 39.202287 21.678879 -33.331453 -6.176460 0.467198 0.284123 3.704993 -1.224385 45.140797 -1.180800 -7.125000 0.000000 0.000000 -54.567700 67.026300 -32.703600 -0.374385 -5.227794 -1.676263 83.482681 -6.487124 -14.586853 -6.769982 12.400421 -0.486099 0.803740 0.077714 3.224325 -8.863083 15.299225 -2.546100 7.125000 0.000000 0.000000 12.089200 -14.861400 8.785200 
-1.428937 17.743722 10.470982 -3.072327 8.392531 7.438836 1.806320 0.927044 0.350956 -13.359922 -8.137091 -7.271327 0.654976 6.616245 18.935672 0.652516 -2.299637 -8.542989 0.000100 0.059000 0.162000 -4.729300 -1.160096 -1.659054 32.816496 0.202135 -2.601601 -0.515419 -4.008667 11.743984 0.979607 -13.367315 -16.020638 -0.723100 -5.433500 15.149300 7.649853 -2.145230 0.058628 1.945713 -3.063209 -2.025603 1.521897 -1.814659 0.413200 -3.731956 -1.308878 -13.363537 -2.402755 -0.539427 14.662339 -1.685700 -0.892800 8.974100 1.291804 4.542363 -0.676678 -88.357846 8.255295 39.290047 21.844966 -33.534964 -6.277340 0.462450 0.283564 3.804821 -1.204378 45.073512 -1.161600 -7.125000 0.000000 0.000000 -54.419300 66.994800 -32.557600 -0.370321 -5.215797 -1.687575 83.389733 -7.207016 -14.323837 -6.795235 12.408634 -0.486136 0.807094 0.082350 2.584301 -8.807420 15.401124 -2.549700 7.125000 0.000000 0.000000 12.120700 -14.760100 8.836000 
-1.446840 17.737653 10.499000 -3.034324 8.332946 7.464508 1.807934 0.928848 0.343891 -13.317159 -8.032211 -7.121768 0.626732 6.525093 18.679272 0.650676 -2.325628 -8.459919 0.000000 -0.008900 -0.024400 -4.728507 -1.151777 -1.641993 32.890513 0.766954 -2.538845 -0.530718 -4.121439 12.057801 0.999964 -13.679032 -16.499736 -0.754300 -5.547100 15.475900 7.492782 -2.137744 0.039781 1.933961 -3.055110 -2.001318 1.574557 -1.812587 0.482068 -3.678568 -1.294014 -13.300461 -2.295612 -0.554755 14.585060 -1.659000 -0.881500 8.922800 1.295654 4.553483 -0.674726 -88.167907 8.384660 39.396154 21.987259 -33.707443 -6.358961 0.461343 0.286935 3.512503 -1.026885 45.077852 -1.036900 -7.125000 0.000000 0.000000 -54.274700 67.052600 -32.516300 -0.370243 -5.226326 -1.681123 83.434166 -7.615388 -15.021523 -6.675073 12.173911 -0.452034 0.814484 0.073365 3.352088 -8.967279 15.456947 -2.603200 7.125000 0.000000 0.000000 12.008400 -14.697000 8.766900 
